<svg width="237" height="23" viewBox="0 0 237 23" fill="none" xmlns="http://www.w3.org/2000/svg">
<path d="M3.672 1.992H0.048V1.44H3.672V1.992ZM7.92 18H5.4V1.44H7.92V18ZM13.272 1.992H9.672V1.44H13.272V1.992ZM17.3685 18H15.0405V1.152L17.3685 0.816V18ZM24.7845 18H22.4565V9.24C22.4565 7.512 21.6405 6.672 20.3445 6.648C19.6485 6.648 19.1205 6.84 18.8085 7.032V6.72C19.1925 6.312 20.2245 5.64 21.4965 5.64C23.5125 5.64 24.7845 6.936 24.7845 9.072V18ZM34.3809 17.304C35.7009 17.328 36.8529 16.824 37.5009 16.272V17.28C36.8049 17.784 35.5329 18.216 33.8769 18.216C30.1329 18.216 27.3969 15.696 27.3969 11.976C27.3969 8.352 29.8689 5.928 32.5809 5.688V6.168C31.2129 6.6 29.8449 8.448 29.8449 11.568C29.8449 15.288 32.0769 17.28 34.3809 17.304ZM34.2129 6.168V5.688C36.6609 5.952 38.1489 7.632 38.1969 9.936V10.248H31.9569V9.696H36.2049C36.1569 7.608 35.3649 6.408 34.2129 6.168ZM47.9925 18H45.4965V1.44H47.9925V18ZM61.6517 18H59.3237V9.24C59.3237 7.512 58.5077 6.648 57.2117 6.648C56.5157 6.648 55.9877 6.84 55.6757 7.032V6.72C56.0597 6.312 57.0917 5.64 58.3637 5.64C60.3797 5.64 61.6517 6.936 61.6517 9.072V18ZM54.2357 18H51.9077V6.024L54.2357 5.664V18ZM75.9521 18H73.6241V1.152L75.9521 0.816V18ZM70.3121 18.192C66.7841 18.192 64.2641 15.912 64.2641 12.048C64.2641 8.064 67.2641 5.64 70.6241 5.64C71.2721 5.64 71.8001 5.688 72.2081 5.784V6.36C71.8001 6.288 71.4401 6.24 71.1521 6.24C68.8481 6.24 66.7121 8.52 66.7121 12.024C66.7121 15.48 68.8001 17.592 70.8161 17.592C71.2721 17.592 71.7281 17.472 72.1361 17.304V17.856C71.6081 18.048 70.9361 18.192 70.3121 18.192ZM85.5919 17.304C86.9119 17.328 88.0639 16.824 88.7119 16.272V17.28C88.0159 17.784 86.7439 18.216 85.0879 18.216C81.3439 18.216 78.6079 15.696 78.6079 11.976C78.6079 8.352 81.0799 5.928 83.7919 5.688V6.168C82.4239 6.6 81.0559 8.448 81.0559 11.568C81.0559 15.288 83.2879 17.28 85.5919 17.304ZM85.4239 6.168V5.688C87.8719 5.952 89.3599 7.632 89.4079 9.936V10.248H83.1679V9.696H87.4159C87.3679 7.608 86.5759 6.408 85.4239 6.168ZM101.268 18H98.5556L90.7076 5.856H93.3956L101.268 18ZM100.716 5.856L97.8596 10.08L97.5476 9.576L100.044 5.856H100.716ZM91.9076 18H91.1876L94.1156 13.776L94.4276 14.256L91.9076 18ZM104.507 3.864C103.691 3.864 103.043 3.24 103.043 2.4C103.043 1.368 103.907 0.912 104.507 0.912C105.155 0.912 105.971 1.368 105.971 2.4C105.971 3.24 105.347 3.864 104.507 3.864ZM105.611 18H103.283V6.024L105.611 5.664V18ZM118.816 18H116.488V9.24C116.488 7.512 115.672 6.648 114.376 6.648C113.68 6.648 113.152 6.84 112.84 7.032V6.72C113.224 6.312 114.256 5.64 115.528 5.64C117.544 5.64 118.816 6.936 118.816 9.072V18ZM111.4 18H109.072V6.024L111.4 5.664V18ZM132.18 6.024H129.9V5.808L132.18 4.368V6.024ZM125.604 12.624V13.056C123.564 12.912 121.836 11.52 121.836 9.36C121.836 7.224 123.564 5.808 125.604 5.664V6.096C124.692 6.408 123.828 7.536 123.828 9.36C123.828 11.184 124.644 12.288 125.604 12.624ZM127.092 13.056V12.624C128.028 12.288 128.844 11.184 128.844 9.36C128.844 7.536 127.98 6.408 127.092 6.096V5.664C129.108 5.808 130.836 7.224 130.836 9.36C130.836 11.52 129.108 12.912 127.092 13.056ZM126.852 22.872V22.392C128.964 22.272 130.404 21.024 130.404 19.464C130.404 18.432 129.708 17.664 128.244 17.664H124.212C122.556 17.664 121.788 16.872 121.788 15.816C121.788 14.952 122.436 13.992 123.492 13.512L123.828 13.608C123.396 13.968 123.228 14.4 123.228 14.76C123.228 15.288 123.612 15.624 124.38 15.624H128.82C131.028 15.624 132.42 16.92 132.42 18.768C132.42 21.288 129.9 22.752 126.852 22.872ZM125.172 22.392V22.872C121.956 22.776 120.972 21.432 120.972 20.232C120.972 19.368 121.524 18.48 122.292 18.192L122.7 18.312C122.316 18.6 122.052 19.248 122.052 19.92C122.052 21.24 123.276 22.272 125.172 22.392ZM146.211 17.616V18.168C141.435 17.808 138.051 14.232 138.051 9.72C138.051 5.208 141.603 1.536 146.211 1.272V1.824C143.019 2.304 140.715 5.688 140.715 9.72C140.715 13.728 143.019 17.232 146.211 17.616ZM151.587 2.304V3.456C150.651 2.616 149.427 1.968 147.963 1.824V1.272C149.283 1.344 150.531 1.68 151.587 2.304ZM147.963 18.168V17.616C149.331 17.496 150.627 16.824 151.587 15.936V17.136C150.363 17.784 149.211 18.096 147.963 18.168ZM159.152 17.664V18.168C156.248 17.976 153.608 15.6 153.608 11.904C153.608 8.28 156.248 5.904 159.152 5.688V6.192C157.472 6.672 156.056 8.88 156.056 11.904C156.056 15 157.4 17.16 159.152 17.664ZM160.664 18.168V17.664C162.416 17.16 163.76 15 163.76 11.904C163.76 8.88 162.368 6.672 160.664 6.192V5.688C163.592 5.904 166.208 8.28 166.208 11.904C166.208 15.6 163.592 17.976 160.664 18.168ZM178.365 18H176.037V9.168C176.037 7.44 175.197 6.672 174.045 6.648C173.469 6.648 172.965 6.816 172.653 7.008V6.696C173.013 6.288 173.877 5.64 175.149 5.64C177.069 5.64 178.365 6.864 178.365 9V18ZM185.541 18H183.213V9.168C183.213 7.44 182.373 6.672 181.221 6.648C180.645 6.648 180.141 6.816 179.829 7.008V6.696C180.189 6.288 181.053 5.64 182.325 5.64C184.245 5.64 185.541 6.864 185.541 9V18ZM171.189 18H168.861V6.024L171.189 5.664V18ZM194.323 18.192C193.699 18.192 193.171 18.12 192.739 18.048V17.448C193.171 17.544 193.507 17.568 193.819 17.568C196.099 17.568 198.235 15.312 198.235 11.808C198.235 8.352 196.147 6.24 194.131 6.24C193.699 6.24 193.219 6.336 192.835 6.504V5.976C193.339 5.784 194.035 5.64 194.659 5.64C198.187 5.64 200.683 7.92 200.683 11.784C200.683 15.768 197.683 18.192 194.323 18.192ZM191.275 22.68H188.947V6.024L191.275 5.664V22.68ZM211.185 18.216C209.649 18.216 208.809 17.4 208.809 15.768V9.6C208.809 7.8 208.017 6.576 206.481 6.552C205.233 6.504 204.129 7.056 203.457 7.728V6.936C204.201 6.168 205.713 5.664 207.129 5.664C209.865 5.664 211.161 7.368 211.161 9.744V16.152C211.161 17.136 211.665 17.424 212.097 17.4C212.265 17.4 212.457 17.376 212.673 17.304V17.808C212.361 18 211.929 18.216 211.185 18.216ZM205.185 18.216C203.673 18.216 202.401 17.16 202.401 15.48C202.401 13.992 203.313 12.528 206.193 11.568L207.369 11.16V11.736L206.457 12.144C204.801 12.888 204.441 14.064 204.441 14.976C204.441 16.296 205.305 17.208 206.409 17.208C206.721 17.208 206.985 17.16 207.369 16.944V17.592C206.649 18.048 206.025 18.216 205.185 18.216ZM224.683 18H222.355V9.24C222.355 7.512 221.539 6.648 220.243 6.648C219.547 6.648 219.019 6.84 218.707 7.032V6.72C219.091 6.312 220.123 5.64 221.395 5.64C223.411 5.64 224.683 6.936 224.683 9.072V18ZM217.267 18H214.939V6.024L217.267 5.664V18ZM231.521 18.432L226.505 5.856H229.073L233.105 16.248L231.401 20.4C230.609 22.392 229.48 22.92 228.305 22.92C227.969 22.92 227.489 22.872 226.961 22.68V21.144C227.657 21.36 228.185 21.384 228.473 21.384C229.721 21.384 230.585 20.856 231.161 19.344L231.521 18.432ZM233.609 13.416L236.273 5.856H236.897L233.897 14.184L233.609 13.416Z" fill="black"/>
</svg>
